<svg width="200" height="210" viewBox="0 0 200 210" fill="none" xmlns="http://www.w3.org/2000/svg">
<circle cx="100" cy="105" r="100" fill="#E1094A"/>
<path d="M127.92 84.7C125.4 79.8467 121.9 76.2067 117.42 73.78C112.94 71.26 107.76 70 101.88 70C95.44 70 89.7 71.4467 84.66 74.34C79.62 77.2333 75.6533 81.34 72.76 86.66C69.96 91.98 68.56 98.14 68.56 105.14C68.56 112.14 69.96 118.347 72.76 123.76C75.6533 129.08 79.62 133.187 84.66 136.08C89.7 138.973 95.44 140.42 101.88 140.42C110.56 140.42 117.607 137.993 123.02 133.14C128.433 128.287 131.747 121.707 132.96 113.4H96.42V100.66H150.04V113.12C149.013 120.68 146.307 127.633 141.92 133.98C137.627 140.327 131.98 145.413 124.98 149.24C118.073 152.973 110.373 154.84 101.88 154.84C92.7333 154.84 84.38 152.74 76.82 148.54C69.26 144.247 63.24 138.32 58.76 130.76C54.3733 123.2 52.18 114.66 52.18 105.14C52.18 95.62 54.3733 87.08 58.76 79.52C63.24 71.96 69.26 66.08 76.82 61.88C84.4733 57.5867 92.8267 55.44 101.88 55.44C112.24 55.44 121.433 58.0067 129.46 63.14C137.58 68.18 143.46 75.3667 147.1 84.7H127.92Z" fill="white"/>
</svg>
